<?xml version="1.0" encoding="UTF-8" standalone="no"?>
<svg width="32px" height="32px" viewBox="0 0 32 32" version="1.1" xmlns="http://www.w3.org/2000/svg" xmlns:xlink="http://www.w3.org/1999/xlink">
    <!-- Generator: Sketch 44.1 (41455) - http://www.bohemiancoding.com/sketch -->
    <title>Arrow 33</title>
    <desc>Created with Sketch.</desc>
    <defs></defs>
    <g id="Page-2-Copy" stroke="none" stroke-width="1" fill="none" fill-rule="evenodd">
        <g id="129" stroke="#979797" transform="translate(16.000000, 16.000000) rotate(-90.000000) translate(-16.000000, -16.000000) ">
            <polygon id="Rectangle-683" stroke="none" fill="#2A2630" fill-rule="evenodd" points="14 21.6568542 19.6568542 16 14 10.3431458"></polygon>
            <path d="M0,2.00174332 L0,29.9982567 C0,31.103789 0.889261723,32 2.00174332,32 L29.9982567,32 C31.103789,32 32,31.1107383 32,29.9982567 L32,2.00174332 C32,0.89621101 31.1107383,0 29.9982567,0 L2.00174332,0 C0.89621101,0 0,0.889261723 0,2.00174332 L0,2.00174332 Z M29.9982567,2 C30.0026924,2 30,29.9982567 30,29.9982567 C30,30.0026924 2.00174332,30 2.00174332,30 C1.99730764,30 2,2.00174332 2,2.00174332 C2,1.99730764 29.9982567,2 29.9982567,2 L29.9982567,2 Z" id="Rectangle-577" stroke="none" fill="#95909E" fill-rule="nonzero"></path>
        </g>
    </g>
</svg>